<svg width="32" height="33" viewBox="0 0 32 33" fill="none" xmlns="http://www.w3.org/2000/svg">
<path d="M26.6666 16.0606V26.7273H5.33328V16.0606M12.6666 5.39398H19.3333M12.6666 5.39398L11.9121 11.43C11.6048 13.8888 13.522 16.0606 15.9999 16.0606C18.4779 16.0606 20.3951 13.8888 20.0878 11.43L19.3333 5.39398M12.6666 5.39398H5.99994L4.23424 11.0442C3.45671 13.5323 5.31552 16.0606 7.92228 16.0606C9.87094 16.0606 11.5147 14.6096 11.7564 12.676L12.6666 5.39398ZM19.3333 5.39398H25.9999L27.7656 11.0442C28.5432 13.5323 26.6844 16.0606 24.0776 16.0606C22.1289 16.0606 20.4852 14.6096 20.2435 12.676L19.3333 5.39398Z" stroke="white" stroke-width="2" stroke-linecap="square" stroke-linejoin="round"/>
</svg>
